<svg xmlns="http://www.w3.org/2000/svg" viewBox="0 0 128 128" role="img" aria-label="Cash on Delivery">
  <defs>
    <linearGradient id="g1" x1="0" y1="0" x2="1" y2="1">
      <stop offset="0%" stop-color="#F7E7B4"/>
      <stop offset="100%" stop-color="#D4B15A"/>
    </linearGradient>
  </defs>
  <rect x="12" y="24" width="104" height="80" rx="18" fill="#1F1F1F"/>
  <rect x="18" y="30" width="92" height="68" rx="14" fill="url(#g1)"/>
  <rect x="24" y="36" width="80" height="56" rx="10" fill="#F6E7BA" stroke="#B28A33" stroke-width="2"/>
  <circle cx="64" cy="64" r="16" fill="none" stroke="#8B6A21" stroke-width="4"/>
  <path d="M64 53v22M71.5 58.5c-2.2-2.5-5.1-3.5-8-3.5-4.2 0-7.5 2.1-7.5 5.6 0 7.8 16 3.6 16 11 0 3.4-3.3 5.9-8 5.9-3.3 0-6.5-1.2-8.7-4" fill="none" stroke="#8B6A21" stroke-linecap="round" stroke-linejoin="round" stroke-width="4"/>
  <path d="M32 48h10M32 80h10M86 48h10M86 80h10" stroke="#C6A04E" stroke-width="4" stroke-linecap="round"/>
</svg>